<?xml version="1.0" encoding="UTF-8" standalone="no"?>
<!-- Created with Inkscape (http://www.inkscape.org/) -->

<svg
   xmlns:dc="http://purl.org/dc/elements/1.1/"
   xmlns:cc="http://creativecommons.org/ns#"
   xmlns:rdf="http://www.w3.org/1999/02/22-rdf-syntax-ns#"
   xmlns:svg="http://www.w3.org/2000/svg"
   xmlns="http://www.w3.org/2000/svg"
   xmlns:sodipodi="http://sodipodi.sourceforge.net/DTD/sodipodi-0.dtd"
   xmlns:inkscape="http://www.inkscape.org/namespaces/inkscape"
   width="618.56982"
   height="612.15082"
   viewBox="0 0 618.56981 612.15079"
   id="svg2"
   version="1.1"
   inkscape:version="0.48.4 r9939"
   sodipodi:docname="logo.svg">
  <defs
     id="defs4" />
  <sodipodi:namedview
     id="base"
     pagecolor="#ffffff"
     bordercolor="#666666"
     borderopacity="1.0"
     inkscape:pageopacity="0.0"
     inkscape:pageshadow="2"
     inkscape:zoom="0.98994949"
     inkscape:cx="393.94891"
     inkscape:cy="328.83179"
     inkscape:document-units="px"
     inkscape:current-layer="layer1"
     showgrid="false"
     inkscape:window-width="1582"
     inkscape:window-height="1027"
     inkscape:window-x="90"
     inkscape:window-y="1016"
     inkscape:window-maximized="1"
     fit-margin-top="0"
     fit-margin-left="0"
     fit-margin-right="0"
     fit-margin-bottom="0" />
  <metadata
     id="metadata7">
    <rdf:RDF>
      <cc:Work
         rdf:about="">
        <dc:format>image/svg+xml</dc:format>
        <dc:type
           rdf:resource="http://purl.org/dc/dcmitype/StillImage" />
        <dc:title />
      </cc:Work>
    </rdf:RDF>
  </metadata>
  <g
     inkscape:label="Ebene 1"
     inkscape:groupmode="layer"
     id="layer1"
     transform="translate(-1.364656,-223.93152)">
    <path
       style="fill-opacity:1"
       d="m 175.91085,830.50507 c -6.03565,-26.9765 0.58864,-52.39757 -26.55325,-69.45868 -6.2989,-9.69803 0.17025,-36.15867 -17.96454,-25.52682 -16.839,15.62908 -8.17298,42.32499 -18.28894,62.38672 -3.78688,9.50319 2.59554,-27.17386 4.66863,-33.97813 -9.51995,-22.3501 24.38305,-40.63931 -12.56813,-47.15754 -6.050227,9.32733 -3.01142,41.97541 -8.031109,11.24298 8.192299,-17.06983 -18.571117,-29.003 0.06542,-46.03744 -21.967011,-11.46123 -28.830939,47.92802 -22.402981,12.55365 6.093034,-21.37707 39.41646,-21.7714 50.69976,-44.16436 2.96127,-0.41087 -19.87119,29.95636 -3.1329,15.35845 11.75587,-11.61207 24.13216,-9.79766 40.38224,-3.21883 20.94272,5.69803 -9.70612,-9.51694 -17.225,-12.78895 14.62016,9.85819 31.38957,4.61842 45.04205,-8.92398 4.53842,0.17562 10.60589,14.93819 19.57661,13.71293 7.85705,-1.15951 24.72364,7.02212 22.00722,7.18642 4.0943,13.98591 32.79927,-7.17988 24.9299,2.20859 -12.45794,13.17258 18.12189,-6.98588 11.25259,-5.65858 21.49426,-6.32423 22.86539,-20.44298 27.8215,-40.14549 6.12085,-16.0269 -4.29344,-36.52937 -2.8901,-9.04069 -5.15377,7.64171 -5.03805,33.13783 -4.84868,29.66462 5.34115,-1.83279 -11.29913,6.54129 -16.24336,13.32459 -16.76361,6.56264 -32.23195,1.32469 -50.21681,-6.53946 -5.29009,-3.06448 -26.55377,-7.97384 -22.49068,-8.36246 24.79542,7.38869 55.25918,19.55556 70.75844,-10.86239 13.78407,-29.07148 13.74931,-62.84992 12.45727,-94.42841 0.86574,-25.17969 -24.68476,-31.99494 -25.13489,-22.34674 17.21608,-17.91932 -28.74044,-18.78268 -30.2954,-19.78751 -1.95414,-18.30026 -46.76698,-38.49485 -33.22968,-9.1274 16.6761,6.94084 35.25089,24.37135 25.67148,38.22829 0.98689,-14.7807 -4.57125,-30.74361 -18.93949,-14.84054 -12.35682,16.90024 19.12088,-18.34529 -6.31144,-17.02222 -7.64878,-10.56285 -23.05063,-7.47523 -23.55854,0.79938 0.0776,-11.17156 -11.42034,6.35671 -1.75822,-8.15333 -10.93853,-10.02314 -42.06382,-12.52847 -22.60714,7.26416 -8.86088,14.37832 30.33823,31.57033 2.53452,16.38917 -6.8267,-13.60173 -9.14374,-26.87463 -18.2007,-5.47299 -1.06558,10.76657 -2.9549,37.99323 -7.99947,35.67384 7.00073,-12.805 2.77935,-39.0729 -10.1715,-14.70085 3.38897,-2.52834 44.6125,-60.74703 5.71048,-53.88408 -11.0352,30.54306 -32.175174,51.41324 -66.614369,48.82767 -30.860668,-3.73491 -13.297679,41.95032 5.293247,14.67765 5.710821,-21.65391 8.868535,15.69014 -3.786657,7.11217 -11.587324,4.92219 8.508571,26.24935 -6.98027,8.40473 -11.477413,-8.1573 -23.240506,-17.11547 -20.71836,4.08432 20.352175,11.20875 8.904433,35.51404 21.78348,48.87536 10.891045,24.28626 36.265026,-12.49545 30.612018,-15.51445 8.081736,14.52495 -17.443223,24.90573 5.427429,29.70753 25.211742,1.45042 8.554532,-0.62907 -3.787487,4.81098 8.191495,17.23141 1.092605,19.71588 -3.176596,1.28805 -13.937905,-29.8845 -24.330838,14.98614 -20.650062,21.13514 3.885582,-28.078 -23.382322,-41.48457 -21.244262,-68.77507 -13.150079,-22.9799 -18.252851,-8.41484 -12.135906,9.8171 -0.310518,18.24331 -3.89706,34.26545 -2.684294,8.6829 C 15.364301,565.3906 14.0052,545.08835 22.882416,523.85329 13.119556,506.02775 6.2235748,547.2431 9.6000742,522.63564 27.764206,510.90654 6.2771156,496.77677 7.1950905,500.68068 18.172319,495.50241 46.877907,486.00017 29.022286,471.47576 c 19.385276,-7.1628 1.510899,-56.24142 -14.54352,-36.42313 15.540826,-13.0614 -4.7365492,-42.56135 13.60016,-33.12762 3.375134,-9.69238 -13.748771,38.92013 5.66215,24.02911 5.961484,-4.62066 33.499469,-25.3546 28.393951,-23.06484 -29.177026,23.35362 33.590486,25.75599 18.930051,-0.4766 -13.193137,-15.80991 12.725044,-44.35566 -12.756344,-40.56683 -15.17136,-18.34532 6.579044,9.64967 15.441402,0.27969 20.918994,-4.65165 14.668115,6.71135 28.039944,1.38659 -14.368463,0.25049 23.38282,-4.99211 2.9097,-12.71187 -13.09833,-0.99629 -38.620053,-21.45119 -12.16437,-8.18302 16.33993,15.46363 23.77166,-4.14367 7.94584,-13.29831 -2.88441,-20.93212 11.31276,-16.30002 7.32242,-35.62897 7.24152,9.39457 -14.76177,43.17813 5.96101,37.02276 20.80189,-8.61627 2.80316,-1.91302 2.52105,8.79262 4.06203,-14.20673 41.49587,1.48573 23.5,-8.44422 22.7168,6.64794 2.67178,-16.24966 -0.5,-21.56249 -0.61521,-9.97105 -16.88064,-18.14596 0.3704,-5.57778 11.93391,30.20638 18.16609,-28.91175 8.05388,-40.38729 0.49686,-3.59104 12.71388,33.86765 16.14351,6.66933 6.86397,-11.0333 -15.58727,30.24679 0.0939,25.37651 -16.8388,-1.9906 -4.96257,29.62136 -5.28864,37.33624 -6.92326,-24.83466 11.79296,-39.80981 31.09994,-29.45399 16.30977,4.37705 36.10757,6.15989 45.52699,25.19828 8.77174,4.85482 -18.25776,-23.54984 6.5881,-13.42286 -19.56465,7.61277 16.79438,6.42706 25.0309,6.25104 3.69434,-0.8893 4.87239,-20.59815 -10.45652,-14.04045 2.6003,32.04426 -1.61749,-21.3915 -4.70033,4.19193 -2.6798,18.89271 -0.10082,-20.1161 -17.48578,-13.61873 -13.91179,-9.3066 -31.06144,2.79789 -23.11359,7.99846 -15.80804,0.74736 12.91533,-34.27498 -5.27622,-12.14907 -0.22107,9.25665 -13.24914,11.47972 -6.07112,1.81718 -3.0776,10.98965 -42.99037,-4.22545 -27.11978,-0.61865 19.01335,7.07044 19.19231,-6.97318 31.68951,-7.68304 -0.45074,-13.06669 8.34103,-37.88364 3.03598,-11.01557 3.11305,3.61195 18.17499,-19.47856 8.81071,-0.96137 -9.06641,23.93394 12.78287,-16.42267 21.94972,5.63413 11.02721,8.53387 40.3668,20.51662 14.78186,3.02628 26.27983,1.26753 -13.09699,-33.42915 5.62641,-29.02649 -10.02287,23.00505 28.26127,18.56635 16.35168,2.39572 7.19327,-8.35158 4.72751,-17.67874 0.0271,-24.9331 4.71272,13.25597 20.15334,11.63953 1.33142,21.07472 11.40673,7.46532 -0.99152,14.31032 10.78886,13.03839 12.90582,-2.97746 22.74006,21.46668 27.73335,16.27686 -9.8779,-9.52822 -32.14794,-33.89279 -8.91847,-11.32962 24.773,8.09749 13.81945,-26.17149 -0.22438,-35.71697 3.08748,22.52088 37.78284,-12.24989 17.02203,6.80572 -14.8686,17.92283 17.14096,16.32785 17.12853,9.087 5.87497,13.16649 -18.29824,0.45545 -18.49278,20.63664 -2.12579,4.74491 29.35187,20.31118 35.46283,33.11564 10.40064,5.55876 -8.65178,-16.83375 -2.5,-14.36321 16.37034,1.78563 -3.32005,-23.39944 -15.64039,-10.13031 -18.22162,-8.66621 30.10899,-16.14734 28.54256,7.50521 7.33921,3.78647 12.75167,32.24518 14.10268,18.95924 -1.75278,-8.4789 -27.7151,-48.16129 -9.70528,-23.97813 13.15192,-6.68208 2.32292,-26.86549 13.23259,-10.59414 24.57644,-6.44572 -31.37677,17.83008 -3.50077,25.61296 4.11633,6.95422 31.09363,-19.87936 39.02324,-0.15005 7.05598,15.58077 19.18129,25.52144 6.9513,0.62306 -9.44682,-13.13617 -19.15449,-12.19555 -3.86975,-23.29581 -11.09191,3.85588 9.74083,48.76518 21.56213,22.21982 -12.07811,-7.56558 -1.0633,-47.18004 -3.93819,-14.52703 3.7217,11.31089 6.86216,6.88904 11.66928,14.12534 8.55743,-11.84419 22.88978,-17.3412 18.82011,-36.49533 -0.22055,17.51651 8.42267,25.35322 -11.06062,28.53865 -15.26508,15.44519 6.69485,18.10026 2.93923,24.20074 13.64508,-9.53972 21.60634,13.87055 23.13692,25.83087 2.92777,16.35465 -3.46002,35.2435 -3.01378,47.32385 22.08211,0.75063 -27.71582,10.72929 -4.17811,-1.46709 9.13655,-16.87804 -4.02212,-24.29371 -13.41925,-8.74697 11.52384,23.04125 -6.58842,-11.75107 -2.12893,12.78582 13.00304,17.96364 19.77867,-1.22133 34.75439,2.74845 5.49852,-2.21068 14.0855,9.68328 23.40689,7.25347 -15.83796,-15.32844 -20.79444,-7.90877 0.17323,-23.97575 11.90891,-39.53446 -46.49898,8.1228 -31.27593,-22.87857 0.39299,-15.91712 -7.51656,-32.40889 -11.98453,-46.03126 4.47694,23.86062 32.2989,16.51835 38.82797,10.40914 4.2118,6.70009 11.54436,4.86047 4.54765,8.00803 23.63589,16.59169 0.85774,4.02778 -10.61474,-3.83382 -6.13727,18.02361 -32.86934,-10.0121 -20.88272,16.38355 -3.57658,12.45188 7.6661,16.60859 10.7091,12.98235 -19.11806,15.44384 33.86852,-10.34083 26.40138,21.03219 3.93662,19.17895 4.99677,3.80543 3.61227,-3.7014 10.47903,1.84589 17.89369,-9.27295 16.34411,2.90437 18.05255,11.22495 -23.0736,-14.78491 -13.44156,9.73338 0.12432,18.90949 -0.69042,38.59477 4.65188,54.83133 4.58741,0.38722 -4.24612,-50.99586 4.74104,-18.33603 11.31551,0.81812 -2.28213,-19.54171 12.99372,-23.53012 -0.0113,-13.59614 15.92782,-30.46219 2.38433,-8.576 -4.59025,14.59925 -20.08322,33.42299 8.62655,33.40783 4.79348,-3.8412 2.35716,50.25142 6.89375,18.20299 0.31524,-13.9738 -2.03426,-22.55027 2.03909,-3.90891 -12.2379,23.3675 12.17501,36.68461 18.66042,10.46656 1.57329,19.47057 -9.90163,17.21417 -22.01814,18.76801 -2.10598,18.28052 2.39238,22.26051 13.29888,29.25738 4.73842,-2.46037 -1.71853,28.50338 6.58704,11.2284 0.56578,-4.40802 7.75029,-26.12936 3.43385,-2.52526 -11.91131,17.01151 -9.36112,35.06977 -17.67491,42.02225 -1.7496,24.45173 35.05325,26.16543 30.54577,53.04635 3.02122,9.85824 -13.29882,-36.00071 -16.75938,-21.35371 11.37508,7.84882 7.0112,43.58911 3.82542,35.28569 4.85384,-16.8681 -5.18638,-34.94665 -18.52289,-45.37385 -15.39955,29.6749 14.21066,55.80554 5.32455,82.4831 -1.99846,-16.8087 -22.55697,30.03797 -12.13345,4.97685 23.75688,-17.83553 -3.22726,-50.25342 -9.96382,-60.36261 -17.08958,7.88834 -22.46208,36.50577 -30.55326,33.3799 10.79672,-9.26954 17.60917,-29.67643 4.74339,-27.185 38.26275,-2.99102 29.72209,-47.91573 31.81406,-73.34648 -4.13367,-16.57859 -17.04522,39.51871 -8.81654,5.61713 -1.98237,-15.2731 30.91891,-39.99104 -1.63912,-38.83748 -20.34283,16.68693 -3.20952,42.34004 -7.48247,62.62015 -10.18873,5.98798 2.58245,31.46657 -6.44061,7.36764 7.94124,-13.34644 1.05229,-31.13093 -9.8188,-11.09339 -3.29077,15.65412 -8.39348,30.00913 -2.84283,4.43413 11.31162,-15.66593 16.42293,-27.74849 10.18186,-48.15153 9.39911,-10.86728 10.3686,-20.70471 1.39113,-22.24965 10.23966,2.66011 34.61548,-25.84046 15.22361,-25.46271 -18.02842,-1.71463 -27.032,2.48362 -24.27224,14.11304 -14.88974,4.11562 -10.04363,-12.23158 -27.48835,0.86171 -5.93199,3.91244 19.8327,-17.78914 -4.78079,-13.46521 -0.71542,7.85784 -10.56816,-12.70152 -11.8063,6.8875 -1.76011,14.41737 4.00673,11.24532 -3.0149,17.39324 7.99923,12.5495 32.05978,-19.20982 29.29453,-0.91961 17.43883,-6.49072 7.96654,-3.88844 22.59704,2.34191 -16.79339,7.65019 -15.38588,31.94369 -19.67222,46.58968 -8.89547,11.12598 -18.31198,22.76584 -6.14427,2.75921 8.03014,-14.02261 5.7835,-33.1962 12.22743,-48.2455 -19.88945,4.17022 -68.00822,4.30324 -37.7583,31.32638 -6.67659,1.19958 -18.50106,-21.23708 -17.17025,-28.18828 -26.7869,-6.74338 12.3719,52.85922 -8.16097,19.00992 -12.42238,-13.20063 1.0479,45.47705 -4.38196,13.49825 -3.65147,-16.16611 -30.07754,11.00246 -9.50743,-8.75271 24.04464,-28.29116 -5.78919,-43.50725 -32.99051,-35.48994 -12.37485,-3.36615 -26.91219,-9.60377 -14.7671,10.61747 9.48816,15.47897 4.5357,26.56834 -0.39013,26.05998 6.36089,-13.99482 -2.12418,-49.66976 -18.26544,-47.3723 -2.76673,18.79596 -19.20417,18.01288 -15.21471,7.54864 8.16766,2.28423 6.32751,-15.11849 16.4627,-18.05134 11.08142,-2.34789 32.76842,6.04299 11.42971,4.3971 11.52223,16.65413 29.54539,0.67204 35.45111,7.53885 5.66262,-6.6434 14.35174,4.98409 27.23126,8.82552 8.09726,11.353 29.87069,2.00507 6.87175,-3.43967 -13.23175,-2.67694 10.64739,-9.6976 -4.69144,-10.33645 -12.67501,14.02634 5.28459,-16.81602 17.06566,-12.15667 15.23796,3.60126 -1.07976,-17.46751 20.70674,-19.42556 9.92568,-4.87608 46.76909,-10.93214 15.89293,-7.80747 -16.88593,6.17559 28.16686,-18.62054 -1.80416,-21.96815 -23.09468,-18.28703 -30.25198,15.53008 -14.31923,22.40573 15.48329,-3.01238 -42.50117,35.66008 -14.42676,12.13622 -6.67381,-23.80586 -33.77134,-21.86469 -23.9248,5.4779 4.41241,13.93401 17.9492,2.72807 0.59763,13.96304 -19.22639,7.87497 -4.74116,3.43531 -2.03334,-3.91356 -12.79732,-10.21986 6.83452,-42.05161 -20.24481,-28.0252 -15.30875,-1.18714 -30.92001,14.20639 -22.01909,16.10984 -16.47293,6.9195 6.37397,28.56541 20.1087,17.59353 16.98243,2.89475 -15.76761,3.97185 -24.01244,2.04554 -11.54732,-19.77141 2.40717,-41.68797 25.63361,-39.24274 16.92336,-9.57619 38.49232,-8.20278 48.49896,8.92611 -14.78929,-23.50153 15.70966,17.59371 3.90151,-10.11169 -2.60041,-23.49511 -28.02607,-12.26296 -32.25206,-36.61722 -27.67212,5.29468 10.86956,30.22002 -5.42428,30.02305 -18.90644,8.19085 -38.66128,4.50744 -39.1929,-3.95677 -7.2731,3.40434 -8.74122,21.13121 -9.32119,26.41243 5.24533,18.84706 -33.91419,14.20143 -35.25223,30.60066 -5.6793,10.18669 -13.32772,18.28667 -7.44486,19.36869 -9.18908,10.66017 10.13567,-0.16905 14.66266,3.27914 -6.22759,3.51144 -44.49179,20.67006 -47.52609,43.88091 -7.97957,33.20618 -8.43603,70.50307 5.49135,102.21436 4.51035,16.15376 -8.31372,-15.09474 -12.08756,-21.57247 -3.67508,-11.47089 -4.98153,-20.89181 0.35998,-8.73814 -2.02386,-26.45778 -2.88353,-40.15577 -0.54822,-62.52496 -1.13763,-11.38396 4.00426,-18.28427 3.49748,-22.7932 -0.0547,-7.93026 12.21444,-50.22001 14.60237,-29.59869 -9.34397,7.68109 -10.28713,31.74822 1.00467,8.03672 8.73493,-15.19574 -2.25325,-30.25423 -6.45353,-45.03989 -0.61143,-1.24632 0.16207,-10.91304 3.81113,-22.9733 4.92199,-10.45688 7.95654,-18.36606 14.21993,-28.31987 1.52059,-4.58609 37.71865,-11.48491 5.37723,-10.34784 -14.6588,2.01771 -23.68645,16.19099 -25.5632,32.57936 -4.03369,6.94046 -2.0202,20.86901 -3.62615,42.14085 1.58954,13.20497 -9.94188,-13.87301 -3.05455,-1.41912 -7.98962,11.54026 -20.20418,-22.39643 -24.26301,-28.27092 -1.8487,16.57197 -5.00408,-14.97854 -4.52289,-2.14767 -1.38909,16.6938 24.04868,30.86797 22.74919,51.75081 -0.1118,-11.23616 2.34477,9.28269 -4.47471,1.13414 2.66991,10.83304 -6.4586,22.92483 -7.73361,36.20269 -3.45602,22.67247 -8.10027,43.59686 -10.58174,66.26064 -0.49149,19.06299 -0.67792,38.91175 3.19788,55.83433 7.04302,13.36916 8.42543,26.19675 20.67533,33.51542 13.48728,14.55557 31.77092,21.0174 51.33416,14.76924 -12.94476,0.93363 -18.45297,-4.12344 1.6485,-0.77831 9.2987,6.26109 20.68816,20.20333 28.32619,20.02252 -13.20508,5.98802 13.72155,0.1072 17.6126,4.94192 6.92962,5.56802 10.28542,1.87717 13.24621,5.57253 9.96662,5.58937 25.25302,14.64899 45.89008,8.53492 5.97493,-1.00525 27.60075,-8.61271 32.53125,-23.52898 7.42495,6.49395 13.6303,-20.546 4.19711,-4.51335 -12.89764,1.16676 -27.15837,26.58981 -41.38895,25.54494 -13.2646,7.00849 -30.94324,-9.63576 -43.77083,-13.03 -10.63652,-0.5221 25.94015,-9.83501 0.8872,-10.60091 -11.98971,-18.62319 -36.44435,-1.89247 -51.73348,-14.76385 -8.76415,-10.25402 -35.30493,-0.11618 -25.86643,2.82228 -22.45342,-6.8376 -49.27859,-30.61655 -46.85075,-53.04238 0.34423,-13.05177 -9.05653,-59.99843 4.04954,-29.89317 -4.62431,6.51485 1.90837,15.73669 5.97193,20.78624 -0.32154,9.38961 2.95737,0.99992 7.8995,17.23857 6.25122,4.40934 8.93796,9.9458 20.11473,15.92915 4.28095,4.74873 14.6174,8.80632 23.0691,12.49247 -1.65463,7.22846 18.52464,-1.00537 25.52328,5.96482 0.92805,1.81924 12.74879,10.52031 11.7292,2.15297 7.576,-1.70077 13.51872,-14.06535 3.90202,-8.55749 2.81718,-4.2549 26.87245,-11.1578 1.51978,-12.02721 -22.09985,21.79128 -58.28638,-12.25381 -67.491,-19.22222 16.27824,26.78543 58.2129,-8.93305 64.33242,-3.72237 -17.93652,7.20338 -8.26726,11.74914 -1.5157,9.37631 -2.81937,8.96789 4.69915,-0.8452 8.78386,7.17005 3.31717,2.3904 11.24305,-0.47457 16.90944,5.82995 13.43055,13.59947 23.20211,14.20349 26.71733,25.5 2.06671,18.43931 12.46229,6.31513 13.01006,16.5 7.64034,-15.49732 10.88134,-18.26457 2.99016,-0.0775 -24.04087,13.13102 5.47016,32.51584 18.42572,10.39034 31.34111,-12.46271 27.36458,-41.44133 -3.83654,-47.42874 -17.21999,-18.2268 -29.87754,18.09964 -37.44931,-0.63414 -12.06857,-13.52019 -17.14226,-8.62578 -1.81974,-9.78924 21.02975,-7.77866 15.43455,-9.83304 6.26901,2.53924 4.09836,4.1025 15.81359,-9.14133 25.50002,-3.4505 16.68027,-0.37762 16.04692,9.11419 24.04307,9.64655 12.51034,17.62726 6.49555,-0.6013 18.64019,17.28711 -3.59981,13.41329 3.07772,15.47133 9.78492,2.31653 -7.56671,-14.81668 -23.44405,-22.32182 -35.54766,-33.55356 27.64633,9.76261 57.31678,46.38529 19.49358,64.75387 -8.68098,6.74036 -0.32982,44.67954 -7.0592,38 4.16256,-20.59077 -3.87529,-39.24835 -22.44353,-17.54267 -18.89141,2.3579 -32.89941,6.53289 -32.01102,29.31301 -0.3214,11.0872 -0.93989,50.35847 -3.00201,50.24709 2.23912,-19.88026 -2.15132,-34.73985 -2.59874,-50.60864 4.92682,-18.94117 8.93152,-31.95047 -16.30408,-33.40879 -12.57354,12.89375 -31.78173,10.82338 -44.84123,10.85358 -4.80646,16.54631 -7.16624,23.48605 -8.82349,39.8374 -9.80667,-15.69149 19.76934,-62.79464 -13.9539,-42.29676 -14.05954,8.68014 -48.82072,-26.45007 -34.23312,5.6587 -13.65002,22.47341 13.42607,34.47957 11.05371,57.76923 -0.37359,2.7661 -4.5591,-24.77867 -14.83224,-29.88642 -9.7595,-4.15308 -11.47703,45.5212 -14.6009,43.84872 -4.29185,-18.20326 6.19252,-35.01998 6.60945,-52.35117 -20.07815,-9.12189 -3.43041,-48.08283 -28.09044,-46.40468 -20.61962,8.11591 -2.75758,34.86554 -28.20851,39.78923 -2.79341,14.42345 13.64674,47.32644 6.48247,49.68217 -0.66017,-19.00276 -15.35962,-61.34203 -30.62309,-27.63483 -10.99376,-5.20395 -12.10021,55.65417 -12.48449,19.71492 -6.93487,-22.48974 22.07152,-29.75444 24.35025,-45.96261 2.49315,-12.92394 17.15113,-33.0173 -5.20354,-15.87803 -25.06103,25.24496 -44.17829,-13.22952 -71.04697,7.55943 -22.43392,-12.64869 -35.26241,5.75612 -10.13222,19.15866 2.25324,5.30199 -19.11968,-12.24359 -5.41727,5.9748 6.25617,15.69849 10.6526,6.96061 6.16709,-2.08505 9.21695,18.44069 -1.51182,47.53914 3.44007,65.22973 l -1.48198,-5.57702 -6e-5,-2.7e-4 z M 331.4133,749.53658 c -11.14811,-25.88851 -5.96283,20.42378 -0.0598,10.0445 0.66993,-3.29998 1.09872,-6.75398 0.0598,-10.0445 z m 6.19652,7.56626 c -1.00501,-8.33501 -4.65404,5.5162 0,0 z m -61.89106,-6.95076 c 13.36332,-19.82466 -12.10884,-2.74452 -3.91924,4.00463 l 3.91924,-4.00463 z m 61.56695,0.29397 c -2.66198,-7.15219 -2.36677,8.79687 0,0 z m -48,-7.15228 c -6.89268,4.09286 -4.05805,8.60656 0,0 z m -0.58183,-4.70386 c -3.12693,3.18363 -3.62258,10.61099 0,0 z m -54.02777,-1.70775 c -0.75757,-4.78491 -24.05212,-11.55599 -34.08123,-14.02002 4.9488,7.12973 11.42545,3.42985 7.70049,7.13653 14.04322,3.92433 12.34775,12.85464 26.38074,6.88349 z m -16.39191,-5.00063 c -15.11855,-6.42624 12.81677,4.00784 0,0 z m 112.43269,0.92447 c -4.25584,-2.42523 -7.47748,7.45473 0,0 z m 139.56881,2.53427 c -5.505,-4.66324 -7.84194,2.44007 0,0 z m -7,-1.8352 c -2.46629,-3.56228 -1.20936,3.65615 0,0 z m -274.24999,-0.63029 c 4.48143,-15.77176 -31.21899,0.13934 -4.79171,0.57262 l 4.79171,-0.57262 0,0 z m 49.27421,-2.52799 c 23.37931,-15.84237 -38.18929,-6.48796 -8.44846,0.24721 l 4.02503,0.79507 4.42343,-1.04228 0,0 z m 133.50791,-0.29069 c 11.77155,-11.18529 -33.58437,-6.7738 -5.25,1.44523 l 5.25,-1.44523 0,0 z m 44.17058,-2.57027 c 18.89859,-12.48691 -34.33058,1.83933 -4.57771,1.97807 l 4.57771,-1.97807 0,0 z m -84.73071,-0.96647 c 14.58275,-14.78923 -39.70238,-25.10443 -9.10992,-2.83992 l 4.89361,4.82563 4.21631,-1.98571 0,0 z m -45.04683,-6.21645 c 20.9028,-25.58442 -35.6541,16.41061 -2.87921,2.79112 l 2.87921,-2.79112 z m -123.92516,4.20013 c 15.68745,-15.60426 -23.29789,-16.1712 -7.45593,-0.99913 l 6.1739,2.27914 1.28203,-1.28001 0,0 z m 100.40435,0.39069 c -9.79433,-8.82068 -18.03155,-6.85594 -0.26338,-15.79666 8.31782,-9.19011 39.33891,-23.21186 15.21182,-7.28686 11.08151,-4.25639 -4.95995,7.24688 12.08409,0.9283 6.85696,-0.16059 5.09342,9.02957 14.48417,8.48138 -6.98882,-16.73395 -11.483,-10.1564 5.26629,-12.07029 11.76884,-10.82093 36.40774,7.76268 10.51761,-2.35453 -13.24886,5.69759 11.18575,6.03293 -0.73261,6.49688 16.68735,10.30536 29.35456,19.93479 18.224,2.51453 5.68191,11.9543 20.77467,7.34893 16.02225,12.98542 13.26726,-7.25922 23.44539,-2.53781 35.29324,6.3587 6.16682,-7.3157 -23.5572,-19.53284 1.1159,-6.89977 14.36301,-21.27543 -27.74128,-24.42569 -42.26478,-21.95802 -23.16763,-15.81663 -45.37173,-38.72729 -69.22655,-10.21989 -21.73455,1.42484 -47.37805,18.19491 -56.71799,6.65345 -17.8727,-0.76466 -38.1326,30.91264 -11.33942,23.7455 13.48789,-11.60153 16.95065,-7.29858 14.32581,-2.26754 9.69705,-3.7043 22.53403,6.68907 33.03147,9.89438 0.21136,2.35221 4.51931,3.36301 4.96808,0.79502 z m 123.65177,-2.82892 c -7.32502,-8.21634 9.47107,5.91507 0,0 z m -141.54904,-8.54829 c 0.74575,-2.33903 4.2321,3.66689 0,0 z m 112.57625,-0.376 c 13.16005,-8.20655 0.13303,2.00488 0,0 z m -119.57625,-2.624 c 0.74575,-2.33903 4.2321,3.66689 0,0 z m 129.99292,-0.0114 c 1.51654,-3.80867 3.05358,3.16631 0,0 z m 5.5,0 c -1.74222,-3.40198 8.7769,3.53959 0,0 z m -141.5,-2 c 2.01724,-3.63341 7.13295,4.73302 0,0 z m 102,0 c 1.20936,-3.65615 2.46629,3.56228 0,0 z m -34.5,-1 c -2.9933,-5.13002 5.78562,2.13583 0,0 z m -6.75,-11.03116 c -8.26286,-6.14108 9.38259,3.64194 0,0 z m -1.86844,27.47922 c 0.0829,-4.20925 -2.96714,4.98625 0,0 z m 175.61843,0.9862 c -1.60731,-12.91519 -13.8132,2.27002 0,0 z M 347.50793,720.2829 c -9.09277,-5.17147 5.73836,8.56271 0,0 z m 124.32095,-0.45627 c -16.58911,-22.04584 -2.48234,5.83163 0,0 z m -328.51997,-4.07151 c 19.71241,-13.09133 -23.63098,-24.20379 3.03617,-37.97622 17.93769,-19.23919 -25.75274,-10.3742 -24.06207,2.47622 -30.243605,20.11545 4.36299,29.04955 21.0259,35.5 z m 126.4394,-0.18948 c -2.36629,-3.01865 -4.95308,3.24475 0,0 z m 183.53739,-1.06052 c -8.50339,-6.58151 -11.77976,3.78076 0,0 z m -264.74999,-6.81145 c 10.40804,-6.57806 27.30928,-27.60152 38.69218,-19.44226 22.45997,2.95018 4.93544,-10.93818 -10.15218,-2.61633 -12.85287,-3.4937 -26.59972,10.84637 -33.71573,20.91589 -5.71687,7.81877 -7.51753,10.02765 5.17573,1.1427 z m -3.17105,0.22812 c 0.64328,-3.85396 1.01442,4.55158 0,0 z m 79.42105,5.58333 c -1.20936,-3.65615 -2.46629,3.56228 0,0 z m -145.5,-0.88337 c -4.55638,-5.1215 -11.34252,-1.42093 0,0 z m 153.82143,-0.81068 c 3.59135,-5.12232 -9.4646,4.98245 0,0 z m -162.18155,-5.09464 c -6.88953,-4.97972 4.7265,10.08351 0,0 z m 62.36012,0.72967 c 5.46175,-4.20029 -9.84301,-7.17943 -1.08333,2.05902 l 1.08333,-2.05902 z m -57.63837,-0.44098 c -7.7307,-8.19812 -1.48253,3.17999 0,0 z m 160.09473,-2.24686 c -2.21715,-3.79823 -9.93492,7.66753 0,0 z m -169.45636,-1.25314 c -2.55494,-3.58745 -2.55494,3.58745 0,0 z m 3.43524,0.10478 c -1.86604,-5.01481 -2.57311,2.8887 0,0 z m 77.4672,-6.63973 c 12.4201,-8.7634 21.51661,-20.84215 -0.55972,-12.70322 -19.79729,4.43742 -18.40528,30.92306 0.55972,12.70322 z m 273.60659,2.88081 c 4.85006,-22.13331 -41.77744,-16.55292 -13.1391,-3.10336 4.01405,1.50272 9.81153,10.66518 13.1391,3.10336 z m -355.6745,0.77756 c 0.45834,-4.51473 -7.105347,2.25364 0,0 z m -0.54478,-4.12342 c 4.47577,-16.70223 -2.0146,-4.60646 0,0 z m 62.33043,0.19446 c 19.77549,-15.97286 -1.29649,-7.1571 0,0 l 0,0 z m 219.37982,-0.66878 c -7.7721,-6.97795 -7.02036,-0.71124 0,0 z m -231.54575,-2.59971 c 16.00322,-21.14677 -14.49084,0.35405 0,0 z m 18.01892,-7.92597 c 18.38486,-27.37975 -30.09255,20.13925 0,0 z m -21.77286,1.61147 c 22.21646,-12.87908 -18.95285,-1.34765 0,0 z m 249.7179,-0.21846 c 5.38131,-5.51498 -9.31564,2.66741 0,0 z m -128.50309,-1.39301 c 3.05859,-8.48887 -8.84527,4.39138 0,0 z m 121.97118,-0.363 c -0.0441,-4.09428 -6.12909,4.35541 0,0 z m -286.97188,-3.69181 c 5.24418,-8.50692 -10.39861,10.04302 0,0 z m 170.08558,2.05481 c -2.55494,-3.58745 -2.55494,3.58745 0,0 z m -36.27267,-5.66514 c -10.30084,-8.07893 -15.15987,6.31624 0,0 z m 213.47266,-1.53486 c -4.61878,-1.91095 1.95261,7.6106 0,0 z m -342.10839,-1.05 c 0.65073,-9.34518 -7.97259,10.908 0,0 z m 234.9693,0.3143 c -2.31769,-2.60339 -8.35469,-10.51543 -18.0171,-13.59137 -2.16393,7.35322 12.82126,14.26593 18.0171,13.59137 z M 178,665.79083 c -7.57755,-3.94919 4.44244,6.88979 0,0 z m 92.78048,0.70583 c 12.99027,-14.80886 -7.72116,-3.11303 0,0 z m -63.57308,-2.58589 c -20.23495,-8.95901 -8.46807,8.84959 0,0 z m 74.07831,-6.56119 c -7.86171,-5.57073 -5.59598,17.10674 0,0 z m 154.72916,6.55137 c -3.68154,-1.13412 -1.83703,1.74158 0,0 z m -106.72916,-4.39583 c -2.55494,-3.58745 -2.55494,3.58745 0,0 z m 89.99999,-1.44098 c -1.73422,-3.55883 -5.03952,2.4395 0,0 z m -132.99999,-2.55902 c -2.30116,-3.46905 -3.64516,3.84819 0,0 z m -23.5,-2 c -3.58829,-3.8072 -1.24187,3.94236 0,0 z m -64.5,-2 c -2.55494,-3.58745 -2.55494,3.58745 0,0 z m 76,-3.55902 c -1.52381,-3.84061 -2.57546,5.06339 0,0 z m 4,-1.44098 c -2.55494,-3.58745 -2.55494,3.58745 0,0 z m 129.5,-2 c -1.24187,-3.94236 -3.58829,3.8072 0,0 z m -125,-6 c -1.20936,-3.65615 -2.46629,3.56228 0,0 z m 3.95729,-4.9309 c -1.28019,-6.48231 -2.58297,4.27804 0,0 z m 9.54271,-4.62812 c -1.38082,-6.11004 -2.41973,8.11249 0,0 z m -8.19313,-3.96744 c -2.83009,1.93312 -1.18781,4.34968 0,0 z m 13.85541,-14.72354 c -1.75023,0.99942 1.62308,5.50683 0,0 z m -8.66228,-3.75 c -2.55494,-3.58745 -2.55494,3.58745 0,0 z m 8,-9.5 c -2.37355,-5.24699 -0.86541,5.2821 0,0 z m -0.005,-6.21232 c -2.67658,-4.38255 2.33968,10.03273 0,0 z m -2.995,1.26902 c 7.86328,-13.41887 3.71983,-34.44527 10.99998,-46.38129 -1.71646,-11.01424 -11.9877,-0.36221 -0.67186,-12.1128 -8.52966,7.3037 -17.63005,-37.89491 -13.17849,-8.64243 -0.32452,13.73741 10.93147,23.72772 4.12353,29.90184 0.23815,17.81251 -1.12281,25.73591 -2.01412,38.61615 l 0.74094,-1.38147 2e-5,0 z m 1.66926,-7.28283 c -0.81649,-9.25714 5.74974,-1.29811 0,0 z m 6.33074,-42.27387 c 2.46629,-3.56228 1.20936,3.65615 0,0 z m 277.99999,19.38197 c -2.23751,-4.31068 -2.11597,7.30623 0,0 z m -0.11499,-7.38197 c -0.0447,-8.21943 -3.30346,14.0164 0,0 z m -290.20189,-0.1875 c -1.71452,-1.71931 0.86336,5.59056 0,0 z m 290.31688,-3.8125 c -2.55494,-3.58745 -2.55494,3.58745 0,0 z m -289.99999,-3 c -1.20936,-3.65615 -2.46629,3.56228 0,0 z m 290.55138,-2.65127 c -4.54324,-7.59561 1.07212,10.73168 0,0 z m -253.55138,-0.46676 c -3.4706,-1.72386 -1.65009,4.66873 0,0 z m 251.99999,-5.32295 c -2.3337,-3.43479 -2.88022,1.90558 0,0 z m -290.393,-2.14081 c -1.96177,-7.10694 -2.03768,5.5985 0,0 z m 296.1655,-8.55881 c 4.77501,-12.97114 8.44217,-27.03238 0.97043,-8.9446 -3.89884,4.62641 -4.99316,21.93442 -0.97043,8.9446 l 0,0 z M 293.28571,525.9461 c 2.56691,-11.80768 -5.70234,7.01278 0,0 l 0,0 z M 586.5357,515.60374 c 8.96744,-17.68252 2.42706,-28.07781 -6.80102,-6.6517 -5.04108,9.31773 0.66015,26.55958 6.80102,6.6517 z m 8.6644,2.90138 c -1.90134,-1.41778 -1.9376,8.24846 0,0 z M 30.080266,515.31514 c 17.723342,-19.44773 63.910591,-3.11236 64.366369,-40.78577 -16.513544,19.32915 -33.879783,-6.56407 -48.490101,8.27745 -16.181484,9.43351 26.032586,21.87945 -2.799508,12.71331 -14.768664,-26.17048 -33.3638686,34.46644 -13.07676,19.79501 z m 255.976134,2.68993 c -3.47598,-8.22079 -0.89038,7.9665 0,0 z m 50.22931,-2.07143 c -2.81137,-6.61692 -4.07893,1.01566 0,0 z m 260.99999,-1.48759 c -2.65779,-3.53786 -1.97302,5.35819 0,0 z M 286.46904,512.2884 c -3.55242,-2.13732 2.47041,5.20224 0,0 z m 21.08102,-5.70909 c 25.54651,-28.04432 -15.34232,-47.82744 -13.04998,-75.24238 0.70727,-13.18392 -18.12207,-31.65217 -16.17325,-5.56002 -4.57995,14.12404 10.59642,17.65259 -4.28493,10.48825 -19.70431,7.71737 23.99323,28.23284 12.36184,30.23991 -1.04708,-19.94427 -34.03882,-16.98957 -18.03059,0.25718 -5.06596,21.48005 26.21434,23.55525 32.91256,45.86737 2.92941,4.0524 4.74613,-7.46639 6.26435,-6.05031 z m -11.12009,-21.82424 c -2.63388,-7.35703 4.9505,8.49405 0,0 z m 301.85573,26.75 c -1.20936,-3.65615 -2.46629,3.56228 0,0 z M 291.117,508.06968 c -4.51561,-15.72485 -16.41918,-22.45499 -29.48051,-24.56461 -24.92955,-3.43443 -24.66157,-28.14867 -22.12616,-46.69909 -3.79267,-22.9224 11.30254,0.13827 12.77538,-22.8689 1.33234,-12.07015 -24.15544,-37.8802 -25.57413,-15.93981 9.91002,7.83441 27.43703,12.10737 5.01478,7.65028 -10.009,-4.71825 -6.8664,9.39461 -9.99034,-6.8314 -18.54093,8.24259 23.88014,28.04166 -2.3155,14.67929 -21.34227,-16.76732 9.47349,-20.93927 13.79751,-35.43465 -6.51304,10.28564 -43.50631,11.70834 -24.93232,30.50214 10.80313,14.03226 -47.98483,16.42604 -39.49228,-1.41652 11.8122,-7.65127 11.26457,-16.59905 -0.68389,-3.88368 -8.58059,19.4036 -12.13464,-18.01672 -22.46053,-3.35145 15.58527,6.95802 1.68317,6.85296 -0.75631,5.012 9.22203,9.42331 19.34542,9.15716 22.58629,17.43417 3.25791,-1.59134 -9.62833,14.33087 -12.07579,7.82245 -3.85818,4.4059 -36.14734,13.75228 -12.61749,10.25274 16.89562,-7.23799 37.96277,-14.79502 53.82421,-16.56105 10.30944,-3.58818 27.33941,-1.70874 34.99487,2.12396 10.19747,0.70999 -3.81537,26.98587 3.17884,42.39753 -5.81241,13.03072 18.41907,12.89131 28.68023,18.75588 9.92306,8.07868 11.19129,5.0538 18.81526,15.13749 3.10781,5.49686 8.17905,11.54722 8.83788,5.78323 z m -36.75234,-25.14794 c 0.64328,-3.85396 1.01442,4.55158 0,0 z m -10.07895,-3.44805 c 3.90414,-3.2606 4.00798,1.77513 0,0 z m -3,-2.96862 c -2.86406,-3.61661 5.55843,3.27538 0,0 z m -4,-44.5 c 2.37355,-5.24699 0.86541,5.2821 0,0 z m -70.31819,-6.11318 c 6.56985,-5.18359 1.24659,4.19117 0,0 z m 74.31819,-6.84515 c -16.81485,-0.11073 4.22699,-4.71032 0,0 z m 25,70.45833 c -7.13729,-3.51305 -5.2871,2.39144 0,0 z M 100.2704,485.19605 c -1.105676,-5.60332 -2.896479,9.26066 0,0 z m 407.0153,1.86804 c -1.82917,-3.32646 -4.85005,2.15558 0,0 z m 77.42936,-4.09248 c -8.14621,-2.36898 -12.51867,0.17517 2.92935,2.39462 -0.97645,-0.79821 -1.9529,-1.59641 -2.92935,-2.39462 z m -335.42935,0.53346 c -2.46629,-3.56228 -1.20936,3.65615 0,0 z M 42.785706,479.34943 c 25.533899,-12.87156 -26.563088,-17.86849 0,0 z m 223.417144,-2.89358 c 0.18099,-11.28695 -9.10057,-20.90483 -4.47179,-31.68213 -11.75905,10.31301 -18.19642,15.15869 -3.18144,0.51251 7.58554,-24.8698 -36.57166,29.37612 -4.26391,33.05534 3.51998,1.75555 12.31585,6.31593 11.91714,-1.88572 z m -82.66714,0.26146 c 4.3138,-12.4027 -26.86851,-7.55161 -35.91831,-17.67419 -33.27806,-14.82122 -2.38983,21.04259 15.26574,11.35685 5.37789,8.69672 10.67135,11.62943 20.65257,6.31734 z m 394.74999,0.28776 c -2.59529,-8.37762 -2.9543,8.49437 0,0 z m -472.91284,-2.22922 c 2.70368,-11.98218 1.24956,7.2981 -1.95457,3.14728 l 1.95457,-3.14728 0,0 z m 256.14158,0.74619 c 11.33202,-11.05027 15.12425,-33.38435 35.60685,-32.08124 -8.19739,-41.86748 -30.91379,6.15266 -38.92671,22.17138 -2.13678,4.35861 -8.54139,17.23429 3.31986,9.90986 z m 128.51611,-0.26697 c 18.5276,-15.75337 -9.9142,-32.46699 -13.23791,-14.10809 1.81455,8.54076 -1.26025,19.98615 13.23791,14.10809 z M 75.703916,474.89808 c 5.087218,-6.51632 -12.976006,0.37977 0,0 z m 13.1768,-4.50777 c 16.968534,-7.73811 6.910596,-2.71403 3.36594,-12.28242 3.771413,-8.79652 -24.62695,25.20452 -3.36594,12.28242 z m -9.20645,-2.15169 c 22.516994,-11.42633 -5.283177,-49.79021 -8.410378,-15.85018 -4.704959,8.60236 -8.300224,24.18593 8.410378,15.85018 z m 351.611434,1.26645 c -2.55494,-3.58745 -2.55494,3.58745 0,0 z m -323.99999,-4.94951 c -7.74959,-3.12602 -5.04961,4.52137 0,0 z m 221,1.50853 c -2.3337,-3.43479 -2.88022,1.90558 0,0 z M 51.035706,463.18154 c -14.810209,-18.97441 2.186551,11.1557 0,0 z m 11.72466,-5.40926 c 15.480267,-18.26734 0.291955,-45.74299 -20.01798,-25.88801 0.732659,25.55846 5.472126,10.18919 7.82923,6.46137 1.309694,6.14328 -6.810714,32.36946 10.590805,23.7643 l 1.597905,-4.33762 4e-5,-4e-5 z m -12.47466,-21.66022 c 4.136464,-6.74967 1.467316,4.85232 0,0 z m 168.100274,27.58036 c -8.58952,-9.27718 -24.03925,-20.05147 -3.28879,-8.18883 24.03758,20.47901 13.41995,-43.44123 -13.15839,-26.05462 -25.76754,0.56906 16.09507,30.82792 -14.24925,26.0561 -13.55943,6.50343 -50.6446,-9.86974 -21.12048,5.45001 17.05618,4.94662 28.04991,-7.00139 36.25264,-0.45001 0.0573,-9.42839 15.13521,10.10517 15.56427,3.18735 z m -19.6555,-21.27672 c 2.4162,-4.81875 12.27937,-1.30528 -4e-5,10e-6 l 4e-5,-10e-6 z m 341.93969,20.6489 c -15.59257,-5.38975 -11.73888,-5.31456 -6.68496,-13.31409 -13.02032,-9.58996 -19.79196,4.12174 -26.81661,3.86461 9.47052,5.09379 25.64197,9.40512 33.50157,9.44948 z m 38.45677,1.69047 c 9.19167,-23.39319 -0.9149,-17.2734 0,0 z m -399.84123,-2.14235 c -4.31979,-3.30805 -2.23119,4.47687 0,0 z m 179.92466,-5.82451 c 2.9241,-11.05716 22.00439,-21.41931 18.58251,-31.77576 -12.93624,5.45213 -18.89261,21.86154 -23.26629,39.00083 l 1.53466,-1.0697 3.14912,-6.15542 0,5e-5 z m -253.92466,4.15784 c -1.52381,-3.84061 -2.57546,5.06339 0,0 z m -1.23079,-2.74131 c -1.08032,-20.52264 -19.093682,13.90732 0,0 z m 229.23079,-0.33325 c -3.99075,-7.99773 -6.46178,2.98528 0,0 z m -154.82143,-1.61642 c 10.19673,0.88908 16.95356,-12.74452 8.16682,-7.51225 10.34309,-20.75865 -24.06163,13.88111 -3.89371,-6.34222 3.73656,-16.27019 -53.27248,5.63341 -18.6548,10.66688 3.73415,2.45869 10.07124,6.1344 14.38169,3.18759 z m 2.82143,-2.62756 c 3.68176,-7.34158 2.66007,2.37764 0,0 z m 359.99999,2.87756 c 11.25888,-13.51219 6.84082,-29.83164 1.32451,-7.36351 3.07409,-5.26027 -5.33353,12.70644 -1.32451,7.36351 z m 18.59253,-2.75 c 8.00979,-7.09376 8.91856,-37.30647 -6.69185,-27.54005 2.87143,8.07365 -13.59583,42.46159 6.69185,27.54005 z M 359.78571,438.18602 c 14.01945,-4.73748 19.73777,-45.1701 2.24468,-27.61691 -11.73388,6.72697 -26.56084,63.98089 -6.25556,33.5022 l 1.96897,-2.87762 2.04191,-3.00767 0,0 z m 217.56604,3.98846 c 7.54433,-24.71173 -23.18808,-18.94059 -9.15015,1.04907 -9.97932,17.61417 16.28802,17.50849 9.15015,-1.04907 z m -266.06604,11.45303 c -3.22927,-6.72267 -4.22678,2.41945 0,0 z M 42.503666,449.32303 c -2.296171,1.31165 2.504288,6.6368 0,0 z m 51.5005,2.93204 c 7.908474,-20.52732 -7.372086,1.09283 0,0 z m 455.887784,-4.53125 c -0.2601,-12.57467 -4.03872,14.78579 0,0 z M 120.2541,444.43921 c -8.67895,-13.08211 -31.230583,-11.29229 -17.71839,3.44794 6.24397,3.36393 12.89794,1.31842 17.71839,-3.44794 z m 391.85128,3.3149 c -10.18674,-38.71182 -15.08509,13.27453 0,0 z m -264.18784,-3.49904 c 15.12447,-14.37023 -9.58716,-24.60507 -5.41804,-4.5 1.18439,3.86487 -2.85608,17.85403 5.41804,4.5 z m 85.81066,-0.0984 c 0.58236,-11.58975 -3.8783,14.71901 0,0 z m 71.35862,3.2953 c -1.75193,-6.57382 -10.30352,6.30525 0,0 z m -81.30139,-4.6969 c 0.64859,-23.24663 31.59573,-51.66042 9.15513,-70.8605 1.72831,16.01946 0.44082,33.37333 -2.85653,7.6105 -1.9396,-15.01205 -18.96567,-21.88936 -19.27422,-36.64762 -5.14641,10.14358 14.15646,39.19106 -1.56295,16.3258 6.83901,-18.85095 -29.60552,-31.61801 -13.44165,-5.40806 2.68859,25.31358 18.56124,0.9424 19.93024,25.48777 -4.50865,10.17689 -1.36831,39.6734 5.5938,37.56847 3.6712,-7.63031 -2.48225,-29.47076 4.38015,-26.82636 -4.07992,10.23722 4.37429,24.76323 6.63423,20.32963 -10.51392,7.14334 -11.14919,24.10638 -20.73029,24.78385 -2.35704,4.55379 14.34181,22.09464 12.17209,7.63652 z m 178.50027,4.25 c -0.86541,-5.2821 -2.37355,5.24699 0,0 z m -461.337714,-2.75 c -1.750233,0.99942 1.623077,5.50683 0,0 z m 90.119844,1.56339 c 9.59868,-7.23036 -14.19912,5.0645 0,0 z m 365.21787,0.35328 c -4.44623,-6.99374 -3.53024,5.97157 0,0 z m 28.8287,-0.0294 c 0.96136,-4.4477 -6.53363,-27.64364 -14.78532,-11.02316 3.23316,4.63777 7.24486,15.95748 14.78532,11.02316 z m 13.73444,-2.09328 c 3.23073,-11.96244 -11.605,7.66917 0,0 z m -130.53486,-2.54399 c 2.56591,-7.41368 -5.65257,9.18025 0,0 z m -3.63407,-1.09019 c -3.44334,-18.9854 -10.72634,11.12502 0,0 z m 129.52545,0.90829 c -2.192,-11.45784 9.67848,4.20027 7.25407,-13.31104 -13.60419,-6.9247 -24.26419,15.30827 -7.25407,13.31104 z M 93.461846,432.59163 c -2.068275,-24.2245 -25.819756,1.11914 -2.368812,6.50213 l 1.314029,-1.84233 1.054783,-4.6598 0,0 z m 177.161564,3.08284 c 7.97452,-13.70674 14.61771,-38.67189 -7.14782,-32.19498 -19.95994,0.62748 17.21131,25.94719 -1.1253,18.5256 1.21098,3.0784 1.6119,23.4051 8.27312,13.66938 z m -133.62639,-0.13491 c 9.33866,-15.74998 -18.4018,-1.28949 -8.26924,-14.25909 -7.2426,-5.2405 -34.252739,-5.68803 -13.41629,6.45847 7.13546,1.83915 14.33956,12.6923 21.68553,7.80062 z m 119.71192,-3.30987 c 3.63799,-30.28209 -13.08921,1.84517 0,0 z m 110.57677,1.21636 c -2.65779,-3.53786 -1.97302,5.35819 0,0 z m -177,0.059 c -2.46629,-3.56228 -1.20936,3.65615 0,0 z m 220.93276,-16.58786 c 17.01884,-32.90728 -30.54267,-12.3434 -21.74261,5.55576 9.24684,13.61885 20.79386,15.36725 21.74261,-5.55576 z m -296.43276,12.00319 c -23.900883,-15.56811 6.33175,11.75672 0,0 z m 43.86616,-4.63247 c -6.74069,-22.80348 -39.71315,-11.45319 -17.31323,6.19472 2.50216,4.55998 13.96101,-5.34863 17.31323,-6.19472 z m 145.63384,3.21714 c -2.46629,-3.56228 -1.20936,3.65615 0,0 z m 14.73155,-2.84053 c 1.03675,-17.21074 -13.92156,-26.51836 -8.3206,-1.14699 1.52777,3.4594 7.69458,7.98362 8.3206,1.14699 z m -216.51488,-2.3428 c -5.510174,-1.64852 2.00718,6.16045 0,0 z m 204.76802,-0.0667 c -2.24515,-9.99311 -4.61373,5.00532 0,0 z M 53.285706,420.56409 c -2.450531,-4.65814 -5.547762,4.32377 0,0 l 0,0 z m 3.5,-0.059 c -4.177894,-3.45953 -1.001773,3.52086 0,0 z m 70.426684,-0.41517 c 9.31969,-12.70632 -21.16864,1.73732 0,0 l 0,0 z m 435.64445,-0.2505 c 4.5531,2.71093 22.58774,-3.50058 -2.57114,-1.26767 -6.63191,2.6295 -2.45634,4.08477 2.57114,1.26767 z m -21.30576,-1.19971 c 0.0613,-17.51711 -16.17248,10.05916 0,0 l 0,0 z m -357.52104,-2.13462 c -7.3273,-29.0645 -17.1638,5.87835 0,0 z m 203.21874,-1.40286 c 8.63553,-15.12286 18.29049,-33.54165 21.73144,-45.02976 -11.80283,7.07184 -14.55357,26.46826 -22.85936,38.84098 -2.63218,1.75857 -3.34006,13.62682 1.12792,6.18878 z m 48.51407,0.8029 c 17.98795,3.03489 25.09612,-13.95086 10.53121,-20.45698 -11.07756,4.12467 -26.08404,6.36125 -20.21861,21.98482 l 3.48161,-0.36768 6.20579,-1.16016 0,0 z M 95.285706,414.00509 c 2.192947,-6.03244 -6.995883,5.556 0,0 z m 105.259014,-0.64118 c 5.69911,-30.74472 -31.69003,14.3566 0,0 z m 94.51022,-8.28213 c 5.14668,-19.29622 -23.71767,-3.07207 -3.01686,7.16579 4.17561,8.53343 2.19093,-8.93321 3.01686,-7.16579 z m -126.10695,5.17331 c -1.75023,0.99942 1.62308,5.50683 0,0 z m -64,-1 c -1.75023,0.99942 1.62308,5.50683 0,0 z m 20.37416,1.19104 c 19.07253,-6.37752 -38.562395,4.97193 -2.87856,0.9909 l 2.87856,-0.9909 0,0 z m -24.82957,-1.69104 c 9.92641,-13.41563 -10.4146,-17.77368 -6.529539,-35.00048 -13.533719,-5.53898 -2.862634,43.7644 6.529539,35.00048 z m 281.19811,-2.67807 c 4.26872,-27.20357 -18.45641,17.07449 0,0 z m -268.87497,2.37951 c 20.99371,6.30376 21.93009,-14.96093 1.01699,-7.95144 -2.1069,0.83813 -6.3342,12.16652 -1.01699,7.95144 z m 194.75974,-1.95144 c -0.70891,-6.96035 -2.28182,6.96363 0,0 z m -199.94678,-3.25408 c -5.41265,0.0541 0.20874,8.24933 0,0 z m 318.15702,2.25408 c -1.20936,-3.65615 -2.46629,3.56228 0,0 z m -235.89969,-0.76531 c 13.34806,-22.30799 -20.36654,-8.42857 -3.84683,0.58882 l 3.84683,-0.58882 0,0 z m 350.39969,-4.29371 c -1.6373,-5.40079 -1.04132,6.42817 0,0 z m -266.48409,-0.32895 c 1.07798,-8.44813 -17.27206,-30.41537 -12.0886,-5.54695 2.01112,4.05261 7.53632,9.33797 12.0886,5.54695 z m -104.53814,-5.2403 c -4.61346,-18.95428 -28.99128,-12.70254 -9.17713,-1.00258 4.97593,4.64443 5.26878,10.93841 9.17713,1.00258 z m 180.67408,-0.12173 c 1.73892,-6.74573 2.1573,-23.73763 7.67174,-5.84084 11.48126,0.9355 5.61724,-16.46117 19.16795,-20.90283 22.86273,-16.58345 -9.83727,-13.5884 -16.68549,-10.38425 -4.94696,19.21129 -10.37915,19.13896 -4.03086,2.44461 -4.46962,-13.29613 -7.50948,21.93049 -15.74317,1.97187 -14.75619,-16.16612 -18.0672,-2.9493 -15.9507,-21.84758 -3.17404,9.66272 -3.77715,-26.74368 -5.08128,-7.19098 -0.50826,9.26937 1.77941,20.97239 7.98855,24.99292 4.54583,8.56422 16.40549,6.05978 18.38347,19.12869 3.37714,2.2814 -2.61232,34.27147 4.27979,17.62839 z m 11.86936,-20.2494 c -0.28093,-11.50717 14.44201,-4.02935 1.86069,-3.61502 2.26594,0.89436 -3.8142,6.95137 -1.86069,3.61502 z m -0.89766,-10.53926 c -2.62237,-7.3194 3.68408,4.68468 0,0 z m -28.97291,-1.5564 c -5.06444,-7.63264 12.69716,7.74813 0,0 z m -75.23169,28.09506 c 15.82715,-21.12173 -20.429,-15.55956 -11.93055,-6.00922 6.28726,2.4257 11.21153,22.43571 11.93055,6.00922 z m 280.16704,3.39331 c 10.8444,-31.32322 -31.60764,1.44393 -1.8813,3.58849 l 1.04956,-1.04661 0.83174,-2.54188 0,0 z m 6.60468,0.0415 c 1.40444,-19.20497 -7.18078,13.89251 0,0 z M 250.8625,392.65359 c -13.99041,-17.63716 2.56951,9.11202 0,0 z m 35.37803,1.08916 c 11.90876,-19.84541 -26.02016,-16.79071 -5.29959,-0.43789 l 1.98399,2.19646 3.3156,-1.75857 0,0 z m 137.29517,0.28073 c 7.08335,2.66656 18.55603,-1.51978 17.50854,-6.41436 -10.8384,5.26552 13.5436,-10.4693 5.07305,-21.69678 6.89547,-25.82713 -35.4202,-27.9438 -13.37797,-2.88663 8.69877,14.62321 -3.6289,36.15707 -14.99216,25.47938 11.33329,-13.73706 -3.22436,-35.71621 -8.91911,-10.03682 -10.32536,13.35356 16.66033,6.81653 -3.54234,15.03316 5.55842,2.21465 12.52189,2.06962 18.24999,0.52205 z M 313.53224,383.11325 c -2.42082,-23.84691 -42.1437,-6.1271 -38.16331,-37.03366 -13.50283,-33.87312 3.16552,10.5801 -0.4663,19.71539 -12.62014,-3.70871 -2.03167,-53.91054 -27.52215,-40.55093 -1.60031,10.1321 24.27338,30.43634 16.8898,38.58784 -9.03615,-10.32729 -22.99417,-45.67257 -35.5125,-27.65854 13.69761,14.42029 12.89329,19.88782 -0.51286,3.08172 -6.81105,-15.55168 -18.43372,-30.96107 -9.94131,-8.28707 8.71142,9.25868 12.41866,16.94057 3.7098,23.1751 -10.34414,0.80806 -62.28817,1.45157 -26.7277,6.05641 14.84726,-2.762 44.2253,-4.28614 46.85925,-3.65526 -9.55013,-10.26455 24.04562,16.55593 35.43812,14.40941 11.84963,-0.097 12.51195,3.90642 25.61176,9.08626 -1.18222,9.7168 6.75052,-14.10375 4.34654,6.21767 -5.63969,14.89986 7.80276,2.66162 5.99086,-3.14434 z M 250.5111,354.53379 c -19.68284,-13.89045 11.98547,4.37191 4.49769,3.51097 l -4.49769,-3.51097 0,0 z M 116.78571,391.925 c 22.06766,-14.25801 -17.813525,-34.9088 -20.000004,-16.07417 5.595674,10.81533 -2.915418,22.19904 20.000004,16.07417 z m -13.48469,-12.61091 c 8.94784,-13.70862 0.51882,4.34781 0,0 z m 191.98469,10.75608 c -5.88738,-28.77593 -10.19863,10.59783 0,0 z m -115.27083,1.83073 c -3.68154,-1.13412 -1.83703,1.74158 0,0 z m 24.27083,-0.005 c -6.16016,-15.80543 -6.59407,-0.61359 0,0 z m 247.65365,-4.09899 c -5.58745,-17.74524 0.48453,15.99303 0,0 z m -304.27728,2.50846 c -8.69287,-3.43872 -7.12731,3.48189 0,0 z m 64.6392,-0.31872 c 4.31275,-13.76649 -16.59199,-26.55887 -11.54482,-6.52757 2.06967,2.83427 7.02101,11.29271 11.54482,6.52757 z m 64.2282,0.8544 c -3.29301,-5.88335 -1.7497,2.02145 0,0 z m -146.24377,-1.33564 c -2.55494,-3.58745 -2.55494,3.58745 0,0 z m 52.5,0 c -1.24187,-3.94236 -3.58829,3.8072 0,0 z m -97.000004,-1 c -1.209361,-3.65615 -2.466294,3.56228 0,0 z m 91.427424,-1.63486 c 7.77403,-20.43505 -30.94017,-21.86711 -8.9395,-2.99737 1.98084,1.38353 5.93406,10.09623 8.9395,2.99737 z m -34.00795,-5.92996 c 5.15609,-24.9713 -30.28776,-2.61086 -8.26936,7.53614 6.06841,1.95956 6.07033,-3.60413 8.26936,-7.53614 z m 55.44216,6.06482 c -2.37355,-5.24699 -0.86541,5.2821 0,0 z m 193.30206,0.58457 c 8.25111,-10.90791 27.88987,-51.68697 1.37885,-30.33923 -4.41763,16.2392 -38.95403,36.24226 -1.37885,30.33923 z M 84.200106,383.50541 c -1.901341,-1.41778 -1.937601,8.24846 0,0 z m 101.039764,1.91435 c -6.2915,-5.26962 2.6311,6.41448 0,0 z m 88.81667,0.89815 c -4.54068,-5.45714 -0.59007,4.19657 0,0 z m 155.86191,-3.39765 c 13.87096,-12.86569 -20.87177,-47.92553 -11.78092,-29.67355 14.76199,10.24681 3.46501,25.45407 10.52977,32.25114 l 1.25115,-2.57759 0,0 z m -280.81319,0.75682 c 9.41525,-6.59065 12.61931,-36.10639 2.61979,-10.26982 -1.59862,1.26173 -9.43003,19.43386 -2.61979,10.26982 z m 376.18044,1.82833 c 2.47946,-3.93854 -7.32841,4.19286 0,0 z m -333.81492,-5.55874 c 4.14219,-24.05427 46.62008,0.80184 21.82675,-17.22117 -8.52143,-11.65579 -38.64524,35.13086 -21.82675,17.22117 z m 27.98619,3.90375 c 6.41099,-15.91271 -19.89685,-10.99173 0,0 z m 50.82215,-2.09501 c -2.66006,-23.32233 -35.96254,-13.16115 -33.75675,-1.51713 10.87139,-8.1234 24.37703,-14.70576 33.01334,2.1838 l 0.74341,-0.66667 0,0 z m 187.54871,-0.31817 c 7.28726,-5.06517 30.2658,-12.75257 28.45787,-22.77792 23.69519,-6.10249 -9.83106,-60.12463 -12.22396,-29.40291 -11.57763,17.52616 -8.85606,10.29557 0.0389,-6.25787 -21.29332,-7.78449 -30.99618,22.46479 -9.81493,32.11 10.36554,15.33275 15.53621,6.76355 -2.19098,19.39922 -2.08271,-0.87611 -13.59377,11.08439 -4.26689,6.92948 z m 21.88487,-20.4533 c 7.48257,-4.14673 -3.87419,5.41772 0,0 z m -13.86271,-12.77166 c 3.50436,-4.56352 -1.26619,4.16137 0,0 z m 12.26021,-6.03269 c -0.39579,-6.58174 1.96565,5.95513 0,0 z m 4.68558,-8.69049 c 7.30038,-1.65206 -0.76524,3.24086 0,0 z M 84.950336,376.98248 c -1.655304,-12.53624 -2.13394,13.98215 0,0 z m 285.828294,3.53438 c -0.74575,-2.33903 -4.2321,3.66689 0,0 z m 81.05252,-2.09478 c 16.61591,-4.92896 -1.0061,-20.50491 0.57291,-9.63978 -3.22484,-11.566 -3.75343,18.45328 -0.57291,9.63978 z m -79.04544,-1.91667 c -1.20936,-3.65615 -2.46629,3.56228 0,0 z m 13.10383,-9.66215 c 8.79674,-5.96077 14.94968,-47.50183 7.28524,-28.04878 2.92266,13.24273 -34.27281,51.90857 -7.28524,28.04878 l 0,0 z m -198.68528,3.54777 c -8.953,-10.13508 -23.69467,-37.48309 -12.10449,-9.08476 -2.17646,0.48835 -1.10215,4.84244 5.31975,9.82507 2.18302,3.38813 12.1118,5.55536 6.78474,-0.74031 z m 48.93032,2.42855 c 27.4528,-10.03162 -39.34693,-17.74499 -10.34887,-2.71047 2.94982,1.68246 6.52931,7.39371 10.34887,2.71047 z m -42.16332,-3.48848 c 4.41469,-11.75649 -15.27494,5.04211 0,0 z m -94.722254,-2.34837 c 5.268484,-12.02831 -19.718657,9.60172 0,0 z m 241.845034,1.44768 c -4.25641,-4.05497 -2.58695,4.3506 0,0 z m 125.61318,-4.28556 c -2.20733,-12.94668 -44.35063,-38.45252 -19.67299,-13.38733 10.92107,6.47546 14.97726,14.25584 18.69615,17.00322 l 1.95395,-0.8342 -0.97707,-2.78169 -4e-5,0 z m -170.42151,2.82844 c -7.13653,-11.80649 -8.87312,-52.87339 -24.29142,-36.75371 6.33372,14.82674 4.77429,39.64493 24.29142,36.75371 z m -12,-9.5269 c 2.88022,-1.90558 2.3337,3.43479 0,0 z m -192.000004,7.5904 c -2.35871,-3.80827 -2.643978,4.71262 0,0 z m 31.000004,-0.59774 c -16.1381,-2.57122 -3.8568,4.26296 0,2e-5 l 0,-2e-5 z m 9,0.68299 c -5.27667,-3.08004 -5.28772,1.71624 0,0 z m 21.50249,-3.90515 c 30.8375,-25.37156 -55.309109,-2.0488 -9.69546,2.87136 3.24379,0.20903 8.21588,1.36743 9.69546,-2.87136 z m 194.38543,-4.20151 c 12.0844,-13.03725 -10.17567,-34.72871 -9.38064,-8.82502 -8.48568,6.84732 5.85542,19.62215 9.38064,8.82502 z m -4.29864,-7.36551 c 4.96464,-1.75246 6.85821,2.95343 0,0 z m -175.50441,5.75072 c -3.63254,-5.11484 2.76993,8.9249 0,0 z m -40.08487,-0.33616 c -2.3337,-3.43479 -2.88022,1.90558 0,0 z m 205.83142,-5.17504 c -2.05383,-35.17626 -12.35111,14.65525 0,0 z m -141.83142,2.70669 c -7.33411,-17.26259 -32.73926,8.06573 0,0 z m 19.5,-1.57768 c 24.21466,-5.03183 -18.11886,-34.67472 -21.91165,-17.21772 -6.76104,7.31241 14.24681,21.98378 21.91165,17.21772 z m -9.42105,-14.09632 c 0.64328,-3.85396 1.01442,4.55158 0,0 z m -2.59449,-1.06779 c -7.70967,-6.43487 4.9911,-2.76599 0,0 z m 171.31554,15.45112 c 13.40094,1.07064 14.77553,-9.36831 -3.15671,-6.61466 -9.57775,-7.48863 -32.03871,-31.81514 -15.26682,-5.65064 6.32761,1.59723 12.53057,15.09882 18.42353,12.2653 z m -236.62373,-0.89434 c 11.59213,-2.16717 41.50105,-9.4827 12.4088,-13.55498 -11.37678,-9.34874 -24.58328,14.11888 -12.4088,13.55498 z m -5.17627,-4.96468 c -1.4767,-5.40588 -2.60298,6.71837 0,0 z m 282.88158,0.30902 c 3.3103,-9.13439 -19.59176,-1.88751 -4.34373,-1.62615 1.77773,-1.40571 3.5453,4.52826 4.34373,1.62615 z m -235.45161,-3.36365 c -6.4253,-4.87699 -2.28854,9.23684 0,0 z m 205.07003,0.95351 c 28.61183,-11.49835 -13.56026,-37.24324 -14.15123,-5.96793 -6.28186,9.13353 10.10096,7.93335 14.15123,5.96793 z m 45.1556,-0.39109 c 19.26619,-16.41382 4.16917,-12.95822 -4.35173,-3.1286 -3.036,3.08984 0.27907,9.76362 4.35173,3.1286 z m -3.49151,-12.72817 c -21.81666,-23.03324 -32.65904,15.77224 -5.56735,10.79144 1.82796,-3.5326 11.94162,-7.21467 5.56735,-10.79144 z m 28.80028,11.52906 c -3.72452,-20.87855 -10.17176,-11.93888 0,0 l 0,0 z m -139.15976,-1.75476 c 6.26768,-21.65194 -8.05652,-34.37285 -23.73432,-15.67013 2.67208,8.2188 14.60833,18.55324 23.73432,15.67013 z m 131.79642,-1.94867 c -8.44417,-10.52971 1.43582,10.83993 0,0 z m -107.33487,-3.20459 c -2.11881,-19.3937 -23.40837,-11.02651 -8.73835,2.0994 3.49132,-0.72049 9.82018,7.9856 8.73835,-2.0994 z m 30.07958,-4.59158 c 8.91518,-12.29767 15.4051,-30.07166 -0.49497,-8.18439 -6.67051,4.63789 -4.44838,23.35987 0.49497,8.18439 z m -184.82186,2.84051 c 2.55593,-10.34555 36.58695,-4.66131 18.77506,-25.52485 -16.21828,-7.59357 -50.04385,30.75347 -18.77506,25.52485 z m 17.97612,-9.59091 c 1.20936,-3.65615 2.46629,3.56228 0,0 z m 162.3573,-0.49636 c 12.67373,-13.72785 -13.23202,-35.64257 -24.51181,-34.40815 -8.22211,5.69787 15.31051,28.73977 -2.0829,7.73685 7.18825,11.80288 9.35597,24.806 20.88486,36.92709 2.25676,-3.21256 3.89593,-6.7915 5.70985,-10.25579 z m -11.8573,-10.50364 c 2.46629,-3.56228 1.20936,3.65615 0,0 z m 2,-2.81854 c 2.28731,-5.00484 3.2066,1.12137 0,0 z m -2,-2.12244 c 2.14376,-5.36381 1.44003,3.46023 0,0 z m -3.07651,-5.30902 c -1.96783,-9.87212 3.69945,-0.5007 0,0 z m -116.02777,27.33561 c 11.97108,-14.2203 -28.24729,-24.09649 -8.41087,-3.65966 13.0182,0.35018 -7.00148,4.64929 8.41087,3.65966 z m 198.10427,-1.86556 c -2.65304,-20.19322 -70.20678,-6.90738 -30.08046,-8.75315 10.79519,-0.68433 20.64608,5.18632 30.08046,8.75315 z m 7.48119,-0.58264 c 6.55783,-22.0253 -29.40849,-5.28222 0,0 z m -149.8189,-2.88741 c -1.75023,0.99942 1.62308,5.50683 0,0 z m 159.57088,-0.63017 c -7.89259,-14.79183 -0.75835,10.14939 0,0 z m 11.22433,-2.86968 c 16.76059,-4.59656 7.88251,-18.25869 -0.4575,-1.3123 -1.79422,-0.36648 5.01931,-21.91969 -12.66925,-10.11547 -5.64047,4.94065 6.42605,17.12858 13.12675,11.42777 z m -121.45749,-0.59516 c -12.11184,-11.39205 -8.21153,-6.73229 2.41266,-2.04245 -0.25555,-10.48254 -17.86773,-32.09767 -15.37904,-9.0191 -11.63923,-11.87469 -39.32071,8.38223 -12.19026,-7.08032 14.58381,-11.75049 5.57934,-24.47451 -10.34336,-12.19685 -24.74225,2.18536 -16.50169,36.85108 -0.53288,21.96488 8.48448,-8.0791 19.56593,1.93126 30.72649,5.57371 1.01982,1.04867 4.03311,6.9924 5.30639,2.80013 z m -154.71378,-8.14817 c 21.05504,-15.08526 -27.31518,-4.31261 -6.39341,3.19163 l 2.81131,-1.29578 3.5821,-1.89585 0,0 z m 246.53361,2.48884 c 11.11997,-15.61945 -24.16196,-27.47508 -35.12385,-8.43481 -1.25134,16.90347 25.86293,8.15529 35.12385,8.43481 z m -41.83514,-0.24566 c -1.74144,-11.54546 -9.30255,6.96499 0,0 z m -9.29154,-9.86937 c 7.98014,-17.84259 -29.79118,-10.68541 -3.96084,2.11937 l 3.96084,-2.11937 0,0 z m 82.7342,0.23691 c -3.18922,-15.3286 -11.51164,5.51056 0,0 z M 329.32501,292.2434 c 15.81837,-26.6263 -27.67825,23.37599 -3.07416,2.96436 l 3.07416,-2.96436 z m -57.0393,7.26167 c -2.55494,-3.58745 -2.55494,3.58745 0,0 z m -10.91644,-4.15613 c -3.57005,-12.82657 -41.27159,-23.44006 -33.33356,-4.31828 10.50246,-0.42129 24.35761,9.12266 33.33356,4.31828 z m 20.47028,-0.93099 c 10.82645,-2.40607 7.62195,-4.31306 18.04058,-8.41663 24.013,-17.43922 -18.61542,-17.50294 -23.44878,2.72346 -2.84974,2.17066 3.45383,8.92624 5.4082,5.69317 z m -7.02189,-9.01354 c 1.20272,-11.04846 -8.01239,8.60598 0,0 z m 58.10684,-5.39934 c -15.34479,-8.04717 -3.96984,11.44151 0,0 z m -53.63879,0.37756 c -5.47157,-3.51848 -3.06114,6.88905 0,0 z m 3.03795,-3.34036 c 25.63184,-24.31704 -15.68082,2.40484 0,0 z m -4.88006,553.4628 c 0.87512,-4.5074 0.87512,4.5074 0,0 z m 43.92106,-5.58333 c 0.64328,-3.85396 1.01442,4.55158 0,0 z m -42.92106,-6.41667 c 0.87512,-4.5074 0.87512,4.5074 0,0 z m -5.65789,-43 c 1.20936,-3.65615 2.46629,3.56228 0,0 z m 153.06428,-29.29313 c 3.50436,-4.56352 -1.26619,4.16137 0,0 z m 76.43571,-24.60843 c 2.57693,-5.01331 4.05663,-0.13101 0,0 z m 5,-4.08997 c 2.5476,-6.12001 6.06272,-0.006 0,0 z m -83,-3.00847 c -3.30242,-3.92977 6.27181,3.35666 0,0 z m 50.5,-19 c 1.20936,-3.65615 2.46629,3.56228 0,0 z m 8.57895,-2.58333 c 0.64328,-3.85396 1.01442,4.55158 0,0 z m -2.07895,-5.41667 c 2.30116,-3.46905 3.64516,3.84819 0,0 z m -72.99999,-5.96862 c 4.00798,-1.77513 3.90414,3.2606 0,0 z m 64.61308,-2.21436 c 3.83771,-1.31738 2.2212,2.84568 0,0 z m -91.61308,-5.81702 c -2.86406,-3.61661 5.55843,3.27538 0,0 z m 20.44198,0.0939 c 10.89092,-1.75735 1.526,3.12788 0,0 z m -34.44198,-3.5939 c -6.45781,-5.41544 9.40759,4.07725 0,0 z m 4.65498,-1.25 c 4.57553,-3.39077 3.94389,2.19448 0,0 z m -8.45131,-2.20452 c 4.43562,-6.02692 -1.64409,6.71179 0,0 z m -15.69155,-6.79548 c 3.67548,-14.03932 2.07915,7.84395 0,0 z m 159.56682,0.16667 c 0.64328,-3.85396 1.01442,4.55158 0,0 z m -382.94477,-0.31259 c 2.37833,-9.79532 21.63778,-6.22861 3.35252,-3.49522 -5.97616,-1.81293 1.2405,7.59881 -3.35252,3.49522 z m 6.36583,-2.10408 c 2.46629,-3.56228 1.20936,3.65615 0,0 z m 15.5,-0.85783 c 4.03588,-4.7889 5.82259,0.2093 0,0 z m -3.5,-3.14217 c -12.39061,-2.55572 14.38556,1.56621 0,0 z m 295.71443,-1.07555 c -9.45518,-3.02807 -26.34431,-18.03749 -5.31913,-6.57212 4.99696,3.60379 12.93597,7.32153 5.31913,6.57212 z M 205.4436,650.50507 c 0.87512,-4.5074 0.87512,4.5074 0,0 z m 210.8421,1.60699 c 3.01346,-3.29904 3.04788,1.3575 0,0 z m 175.03063,-1.10699 c 0.81465,-5.58593 3.50429,-1.35954 0,0 z m -460.21266,-2.71796 c 6.6368,-2.50429 1.31165,2.29617 0,0 z m -43.179594,-6.28204 c 2.373552,-5.24699 0.865406,5.2821 0,0 z M 304.84966,628.199 c 2.8601,-7.34655 3.18568,0.60215 0,0 z m 14.43605,-9.13491 c 1.77476,-6.84647 1.27417,5.33908 0,0 z m -1.5,-11.55902 c -4.63627,-3.27145 7.42875,2.69655 0,0 z m 2.83333,-2.45601 c 2.5569,-3.46345 0.21437,4.55245 0,0 z m -1.25438,-8.12732 c 0.64328,-3.85396 1.01442,4.55158 0,0 z m -4.57282,-3.39735 c 4.49659,-15.96855 2.77843,3.61021 0,0 z m 7.22508,-3.09948 c 3.58748,-12.18175 -1.11642,8.35728 0,0 z m 2.2841,-10.61082 c 0.90228,-6.47675 3.88384,-0.0712 0,0 z m -7.93636,-0.97723 c -5.29557,-14.32395 2.63623,2.63372 0,0 z m 76.41655,-19.52067 c 4.87943,-10.23861 1.0728,6.75845 0,0 z m -78.01928,-4.56112 c 7.14369,-10.32789 -4.88674,9.92637 0,0 z m 78.2176,0.10644 c 3.51793,-12.19268 3.30498,4.09062 0,0 z m 216.17861,-4.10644 c -3.34509,-4.77429 6.08469,5.89208 0,0 z m -293.87243,-2.30902 c 2.88022,-1.90558 2.3337,3.43479 0,0 z m 80.07895,-0.52431 c 0.64328,-3.85396 1.01442,4.55158 0,0 z m 60.67624,-1.91639 c 6.11107,-12.39667 0.0398,6.10382 0,0 z m -139.75519,-0.44126 c 2.14376,-5.36381 1.44003,3.46023 0,0 z m 83.07895,0.22236 c -6.3155,-1.60323 3.45453,-2.04536 0,0 z m -79.07895,-3.91471 c -4.84602,-11.22399 -3.71086,-0.60351 0,0 l 0,0 z m 141.193,-3.11667 c 7.57443,-12.79863 -1.57951,6.9641 0,0 z m -451.035114,-1.25 c 0.875116,-4.5074 0.875116,4.5074 0,0 z m 212.921064,-1.58333 c 0.64328,-3.85396 1.01442,4.55158 0,0 z m 101.42105,0.58333 c 2.46629,-3.56228 1.20936,3.65615 0,0 z m -6.48813,-2.69098 c 1.48573,-15.85947 3.55257,-34.04678 3.28149,-6.6321 3.08119,4.01072 -1.88213,3.85984 -3.28149,6.6321 z m 78.96807,-0.83319 c -3.40085,-6.52915 5.16481,5.4246 0,0 z m -263.97994,-2.41681 c 2.14376,-5.36381 1.44003,3.46023 0,0 z m 311.07086,-1.55902 c 1.93957,-7.31481 4.3808,-3.92399 0,0 z m -215.61198,-1.56653 c -1.22165,-5.01547 3.25482,3.80851 0,0 z m 85.54112,-0.37445 c 2.57547,-5.06339 1.5238,3.84062 0,0 z M 131.8927,525.92328 c -2.11767,-7.42505 5.40559,6.46913 0,0 z m 408.893,-1.41821 c 2.46629,-3.56228 1.20936,3.65615 0,0 z m -281.30504,-3.5 c 0.44973,-5.70268 0.96884,6.17479 0,0 z M 66.098206,519.82196 c 5.590535,-0.8633 -1.719373,1.71436 0,0 z m 472.920824,-1.44098 c 5.36885,-2.97937 -2.43669,3.07332 0,0 z m -377.65437,-3.45924 c 0.64328,-3.85396 1.01442,4.55158 0,0 z m 155.92105,-4.41667 c 2.46629,-3.56228 1.20936,3.65615 0,0 z M 1.364656,506.92174 c 0.6432829,-3.85396 1.0144185,4.55158 0,0 z m 235.153054,-1.41667 c 0.80425,-6.25837 0.80425,6.25837 0,0 z m 88.83829,0.25 c 1.02654,-8.70631 3.59808,1.54606 0,0 z m -1.57029,-4.25 c 1.20936,-3.65615 2.46629,3.56228 0,0 z m -2.34211,-3 c 0.87512,-4.5074 0.87512,4.5074 0,0 z M 171.26565,495.9809 c -3.40085,-6.52915 5.16481,5.4246 0,0 z m 202.09901,-12.22583 c 2.04453,-5.53152 2.53744,8.53268 0,0 z m 226.92104,-0.30902 c 2.88022,-1.90558 2.3337,3.43479 0,0 z m -250.99999,-1.94098 c 2.46629,-3.56228 1.20936,3.65615 0,0 z m 240.99999,-0.0569 c 1.55145,-2.74173 10.72169,3.37133 0,0 z m -61.69721,-3.73483 c -2.18057,-5.98479 8.10343,0.60182 0,0 z m -25.3008,-0.95827 c 12.63215,-4.40639 1.65217,2.52157 0,0 z m -159.00198,-2.46821 c -3.02252,-10.46847 3.99455,2.86793 0,0 z M 23.285706,470.44605 c 2.880217,-1.90558 2.333698,3.43479 0,0 z m 320.500004,-2.94098 c 2.46629,-3.56228 1.20936,3.65615 0,0 z m 162.06428,-1.29313 c 3.50436,-4.56352 -1.26619,4.16137 0,0 z m -91.56428,-3.76589 c 2.8802,-1.90557 2.33368,3.43478 0,0 z M 6.849996,441.21194 c 3.47251,-4.67515 -1.2511228,4.37677 0,0 z m 423.435704,0.29313 c -3.30242,-3.92977 6.27181,3.35666 0,0 z M 342.95238,424.8384 c -2.79479,-9.94746 -3.52468,2.94924 -3e-5,0 l 3e-5,0 z m 4.32419,-6.84434 c -2.18762,-5.09334 7.20075,3.61206 0,0 z m 139.10952,-2.78447 c -3.46356,-6.00954 5.7201,6.48517 0,0 z m 61.91492,-2.3955 c 0.90228,-6.47675 3.88384,-0.0712 0,0 z m -80.01531,-2.50982 c 10.59297,-2.32737 9.20429,1.65861 0,0 z m -113.77082,-2.9867 c 4.54068,-5.45714 0.59007,4.19657 0,0 z M 17.294266,396.00507 c -2.848012,-7.52507 2.785413,-4.01025 0,0 z m 476.491434,-15.5 c 2.46629,-3.56228 1.20936,3.65615 0,0 z m 44.28872,-18.52579 c -6.68521,-18.83403 4.15386,6.98204 0,0 z M 58.098206,353.82196 c 5.590535,-0.8633 -1.719373,1.71436 0,0 z m 462.750774,-1.2135 c 4.89151,-2.32461 3.71271,2.25835 0,0 z m 13.43672,-1.10339 c -2.45201,-7.09778 4.75454,7.17619 0,0 z M 83.785706,334.98911 c -10.110612,-8.36983 11.570669,7.72687 0,0 z m 475.999994,1.51596 c 1.24187,-3.94236 3.58829,3.8072 0,0 z m -3.04112,-1.06653 c -1.22162,-5.01547 3.25477,3.80848 0,0 z m 2.04112,-1.93347 c 2.46629,-3.56228 1.20936,3.65615 0,0 z m -426.49999,-1 c 2.30116,-3.46905 3.64516,3.84819 0,0 z m 9,-3 c -2.93,-3.42569 11.36806,3.53169 0,0 z m 93,-15 c 2.55494,-3.58745 2.55494,3.58745 0,0 z m -99.69922,-1.88863 c 2.50321,-8.93521 1.65556,6.24612 0,0 z m 98.69922,-2.80141 c -11.55566,-8.02688 15.86413,8.0926 0,0 z m -103,-0.70297 c 4.94959,-4.33265 2.04643,2.18311 0,0 z m 350.49999,-2.60699 c 15.48821,-6.36176 -9.35168,7.40391 0,0 z m -254.99999,0 c 1.24187,-3.94236 3.58829,3.8072 0,0 z m 167.5,-9.85783 c 4.03588,-4.7889 5.82259,0.2093 0,0 z m -175,-4.08315 c 2.14376,-5.36381 1.44003,3.46023 0,0 z m -22.54112,-4.12555 c -1.22165,-5.01547 3.25482,3.80851 0,0 z m -14.45888,-1.53319 c 2.47887,-9.68041 17.34659,-6.47176 0,0 z m 74.50708,-6.38883 c 0.53743,-2.50256 4.36196,3.80065 0,0 z m -111.49447,-2.9825 c -2.24348,-3.49162 5.78305,3.01753 0,0 z m 51.98739,-0.029 c -3.69604,-3.75886 7.95824,3.51331 0,0 z m 49.59259,-4.20714 c -15.94117,-8.96977 12.46358,-10.23793 5.72338,-23.40679 -4.74502,15.56349 18.75681,2.2228 -1.31597,13.94989 -19.00171,4.17603 15.71804,21.31617 -4.40741,9.4569 z m -100.59259,1.32517 c 1.65009,-4.66873 3.4706,1.72386 0,0 z m 191.55887,-1.64983 c -3.76393,-5.32444 6.97982,5.4182 0,0 z m -154.16123,-3.74836 c 6.87006,-10.63107 -4.62442,14.11835 0,0 z m 249.6813,2.19969 c -9.01119,-21.21066 -0.66718,-9.12704 0,0 z m -79.07894,-1.91948 c 7.32841,-4.19286 -2.47946,3.93854 0,0 z m 11.02351,-0.11495 c -20.09165,-2.49497 16.526,1.20767 0,0 z m -134.02351,-2.91643 c 3.90414,-3.2606 4.00798,1.77513 0,0 z m 51.73556,-39.22494 c -6.37636,-11.26109 7.5343,10.64404 0,0 z"
       id="path3351"
       inkscape:connector-curvature="0" />
  </g>
</svg>
